# xmcd
#
# Track frame offsets:
#	150
#	10561
#	29698
#	42596
#	56630
#	69449
#	82092
#	95908
#	110969
#	124725
#	138209
#	147760
#	161847
#	178004
#	189253
#	202576
#	213098
#	229069
#	243241
#	263617
#	281026
#	298946
#	319408
#
# Disc length: 4518 seconds
#
# Revision: 1
# Processed by: cddbd v1.5.2PL0 Copyright (c) Steve Scherf et al.
# Submitted via: audiograbber 1.83.01
#
DISCID=5a11a417
DTITLE=Various Artist - 100 Years Of The Blues  CD1
DYEAR=2011
DGENRE=Blues
TTITLE0=Buddy Guy - First Time I Met The Blues
TTITLE1=Cream - Crossroads (Live At Winterland)
TTITLE2=Robert Johnson - 32-20 Blues
TTITLE3=Howlin' Wolf - Smokestack Lightning
TTITLE4=Muddy Waters - I'm Your Hoochie Coochie Man
TTITLE5=Etta James - Spoonful
TTITLE6=Mississippi Fred McDowell - 61 Highway
TTITLE7=Lightnin' Hopkins - Back To New Orleans
TTITLE8=Willie Dixon - Walking The Blues
TTITLE9=Bo Diddley - I'm A Man
TTITLE10=Rod Stewart - Good Morning Little School Girl
TTITLE11=Little Walter - Blues With A Feeling
TTITLE12=John Mayall's Bluesbreakers - All Your Love
TTITLE13=Alexis Korner's Blues Incorporated  - Chicken Shack
TTITLE14=Free - I'm A Mover
TTITLE15=Fleetwood Mac - Stop Messin' Around
TTITLE16=Roy Buchanan - Sweet Dreams
TTITLE17=Marcus Bonfanti - Messing Around No More
TTITLE18=Robert Plant and Alison Krauss - Fortune Teller
TTITLE19=ZZ Top - La Grange
TTITLE20=Small Faces - You Need Loving
TTITLE21=Larry Carlton and Terry McMillan - Crazy Mama
TTITLE22=The Allman Brothers Band - Statesboro Blues (Live At The Fillmore East
TTITLE22=)
EXTD=
EXTT0=
EXTT1=
EXTT2=
EXTT3=
EXTT4=
EXTT5=
EXTT6=
EXTT7=
EXTT8=
EXTT9=
EXTT10=
EXTT11=
EXTT12=
EXTT13=
EXTT14=
EXTT15=
EXTT16=
EXTT17=
EXTT18=
EXTT19=
EXTT20=
EXTT21=
EXTT22=
PLAYORDER=
